<svg width="419" height="125" viewBox="0 0 419 125" fill="none" xmlns="http://www.w3.org/2000/svg">
<path d="M52.283 15.663H80.2549V0.671082H52.283C-16.3834 0.671082 -16.3834 105.62 52.283 105.62H80.2549V90.4778H52.283C3.40685 90.4778 3.40685 15.663 52.283 15.663Z" fill="url(#paint0_linear_614_469)"/>
<path d="M52.283 103.705C36.9428 103.705 24.0853 98.2617 15.1009 87.9634C7.10289 78.7952 2.69832 66.4295 2.69832 53.1457C2.69832 39.8613 7.10289 27.4967 15.1009 18.3284C24.0853 8.02965 36.9428 2.58596 52.283 2.58596H80.2549V0.671082H52.283C-16.3834 0.671082 -16.3834 105.62 52.283 105.62H80.2549V103.705H52.283Z" fill="url(#paint1_linear_614_469)"/>
<path d="M52.2832 15.6628H80.2551V13.7484H52.2832C40.3888 13.7484 30.3827 18.0178 23.3468 26.0952C17.1334 33.2289 13.7117 42.8082 13.7117 53.0705C13.7117 63.3322 17.1334 72.9126 23.3468 80.0451C30.3827 88.1226 40.3888 92.3919 52.2832 92.3919H80.2551V90.4776H52.2832C3.407 90.4776 3.407 15.6628 52.2832 15.6628Z" fill="url(#paint2_linear_614_469)"/>
<path d="M80.2555 44.205V36.4863H53.8156C42.6035 36.4863 37.4989 45.1202 37.4989 53.1459C37.4989 61.1662 42.6035 69.8006 53.8156 69.8006H80.2555V62.8852H61.8362V50.9721H92.1686V81.7902H53.8161C35.3353 81.7902 25.6631 67.381 25.6631 53.1459C25.6631 45.6833 28.1593 38.7164 32.6911 33.5146C35.8677 29.8777 39.8677 27.2947 44.4968 25.8575C47.3712 24.9569 50.4915 24.5021 53.8161 24.5021H92.1686V44.205H80.2555Z" fill="url(#paint3_linear_614_469)"/>
<path d="M92.1679 44.2054V24.4995H53.816C45.1429 24.4995 37.8387 27.6178 32.6925 33.5169C28.1587 38.7149 25.6616 45.6857 25.6616 53.1458C25.6616 67.381 35.3327 81.7921 53.816 81.7921H92.167L92.1675 50.9704H61.8332V52.8853H90.2525L90.2521 79.8778H53.8154C36.5889 79.8778 27.5754 66.4302 27.5754 53.1458C27.5754 46.1485 29.9048 39.6242 34.1343 34.7756C38.9064 29.3057 45.7119 26.4144 53.815 26.4144H90.2521V44.206L92.1679 44.2054Z" fill="url(#paint4_linear_614_469)"/>
<path opacity="0.7" d="M92.1679 44.2054V24.4995H53.816C45.1429 24.4995 37.8387 27.6178 32.6925 33.5169C28.1587 38.7149 25.6616 45.6857 25.6616 53.1458C25.6616 67.381 35.3327 81.7921 53.816 81.7921H92.167L92.1675 50.9704H61.8332V52.8853H90.2525L90.2521 79.8778H53.8154C36.5889 79.8778 27.5754 66.4302 27.5754 53.1458C27.5754 46.1485 29.9048 39.6242 34.1343 34.7756C38.9064 29.3057 45.7119 26.4144 53.815 26.4144H90.2521V44.206L92.1679 44.2054Z" fill="url(#paint5_linear_614_469)"/>
<path d="M156.063 95.6526C147.515 95.6526 139.843 93.8578 133.042 90.2547C126.254 86.6382 120.923 81.6113 117.037 75.1676C113.15 68.7104 111.207 61.403 111.207 53.2522C111.207 45.088 113.15 37.7807 117.037 31.337C120.923 24.9 126.254 19.8665 133.042 16.2499C139.843 12.6334 147.515 10.8251 156.063 10.8251C163.526 10.8251 170.246 12.1475 176.225 14.7925C182.216 17.4374 187.19 21.2429 191.15 26.209L176.467 39.4878C171.178 33.1183 164.761 29.9336 157.224 29.9336C152.797 29.9336 148.858 30.9051 145.403 32.8483C141.949 34.7916 139.263 37.5378 137.359 41.0801C135.45 44.609 134.499 48.6641 134.499 53.2522C134.499 57.827 135.45 61.8821 137.359 65.4245C139.263 68.9534 141.949 71.6861 145.403 73.6292C148.858 75.5725 152.797 76.5441 157.224 76.5441C164.761 76.5441 171.178 73.3593 176.467 66.9899L191.15 80.2687C187.19 85.2549 182.216 89.0672 176.225 91.7121C170.246 94.3369 163.526 95.6526 156.063 95.6526Z" fill="#121212"/>
<path d="M247.182 51.498H267.586V85.2887C262.924 88.6354 257.559 91.1993 251.5 92.9807C245.434 94.762 239.382 95.6526 233.337 95.6526C224.788 95.6526 217.096 93.8578 210.261 90.2547C203.418 86.6382 198.062 81.6113 194.175 75.1676C190.288 68.7104 188.345 61.403 188.345 53.2522C188.345 45.088 190.288 37.7807 194.175 31.337C198.062 24.9 203.459 19.8665 210.368 16.2499C217.278 12.6334 225.084 10.8251 233.795 10.8251C241.407 10.8251 248.241 12.1138 254.307 14.6845C260.366 17.2417 265.413 20.9325 269.449 25.7501L254.766 39.029C249.239 32.9699 242.634 29.9336 234.955 29.9336C227.953 29.9336 222.312 32.059 218.033 36.303C213.77 40.5336 211.637 46.1811 211.637 53.2522C211.637 57.7528 212.609 61.7742 214.551 65.3166C216.495 68.8454 219.208 71.5983 222.703 73.5753C226.212 75.559 230.212 76.5441 234.713 76.5441C239.139 76.5441 243.296 75.6534 247.182 73.8721V51.498Z" fill="#121212"/>
<path d="M310.695 12.4444C318.07 12.4444 324.472 13.6725 329.912 16.115C335.363 18.5642 339.56 22.0662 342.516 26.6138C345.464 31.1683 346.942 36.5122 346.942 42.6455C346.942 48.7855 345.464 54.1092 342.516 58.6231C339.56 63.1237 335.363 66.5985 329.912 69.041C324.472 71.4904 318.07 72.7116 310.695 72.7116H296.471V94.0331H273.396V12.4444H310.695ZM309.291 54.5208C314.042 54.5208 317.61 53.4952 320.007 51.4441C322.414 49.3793 323.622 46.4442 323.622 42.6455C323.622 38.8333 322.414 35.8847 320.007 33.793C317.61 31.6879 314.042 30.6352 309.291 30.6352H296.471V54.5208H309.291Z" fill="#121212"/>
<path d="M415.92 76.1933V94.0331H350.417V12.4444H414.408V30.2843H373.276V44.0489H409.496V61.2951H373.276V76.1933H415.92Z" fill="#121212"/>
<defs>
<linearGradient id="paint0_linear_614_469" x1="40.5191" y1="0.671082" x2="40.5191" y2="105.62" gradientUnits="userSpaceOnUse">
<stop stop-color="#53B2FE"/>
<stop offset="1" stop-color="#4263EB"/>
</linearGradient>
<linearGradient id="paint1_linear_614_469" x1="40.5191" y1="0.671082" x2="40.5191" y2="105.62" gradientUnits="userSpaceOnUse">
<stop stop-color="#53B2FE"/>
<stop offset="1" stop-color="#4263EB"/>
</linearGradient>
<linearGradient id="paint2_linear_614_469" x1="46.9834" y1="13.7484" x2="46.9834" y2="92.3919" gradientUnits="userSpaceOnUse">
<stop stop-color="#53B2FE"/>
<stop offset="1" stop-color="#4263EB"/>
</linearGradient>
<linearGradient id="paint3_linear_614_469" x1="58.9159" y1="24.5021" x2="58.9159" y2="81.7902" gradientUnits="userSpaceOnUse">
<stop stop-color="#53B2FE"/>
<stop offset="1" stop-color="#4263EB"/>
</linearGradient>
<linearGradient id="paint4_linear_614_469" x1="58.9148" y1="24.4995" x2="58.9148" y2="81.7921" gradientUnits="userSpaceOnUse">
<stop stop-color="#53B2FE"/>
<stop offset="1" stop-color="#4263EB"/>
</linearGradient>
<linearGradient id="paint5_linear_614_469" x1="58.9148" y1="24.4995" x2="58.9148" y2="81.7921" gradientUnits="userSpaceOnUse">
<stop stop-color="#53B2FE"/>
<stop offset="1" stop-color="#4263EB"/>
</linearGradient>
</defs>
</svg>
