<svg width="13" height="13" viewBox="0 0 13 13" fill="none" xmlns="http://www.w3.org/2000/svg">
<g clip-path="url(#clip0_1009_1199)">
<rect width="13" height="13" rx="2" fill="white"/>
<g clip-path="url(#clip1_1009_1199)">
<path d="M6.61903 2.90365H9.30433V1.46442H6.61903C0.0270543 1.46442 0.0270543 11.5395 6.61903 11.5395H9.30433V10.0859H6.61903C1.92692 10.0859 1.92692 2.90365 6.61903 2.90365Z" fill="url(#paint0_linear_1009_1199)"/>
<path d="M6.61903 11.3557C5.14637 11.3557 3.91205 10.8331 3.04955 9.84449C2.28174 8.96433 1.8589 7.77723 1.8589 6.50198C1.8589 5.22669 2.28174 4.03968 3.04955 3.15953C3.91205 2.17084 5.14637 1.64825 6.61903 1.64825H9.30433V1.46442H6.61903C0.0270543 1.46442 0.0270543 11.5395 6.61903 11.5395H9.30433V11.3557H6.61903Z" fill="url(#paint1_linear_1009_1199)"/>
<path d="M6.61907 2.90363H9.30437V2.71984H6.61907C5.4772 2.71984 4.51662 3.12971 3.84117 3.90514C3.24468 4.58997 2.9162 5.50959 2.9162 6.49476C2.9162 7.47989 3.24468 8.3996 3.84117 9.08432C4.51662 9.85976 5.4772 10.2696 6.61907 10.2696H9.30437V10.0858H6.61907C1.92695 10.0858 1.92695 2.90363 6.61907 2.90363Z" fill="url(#paint2_linear_1009_1199)"/>
<path d="M9.30441 5.64368V4.90268H6.76618C5.68982 4.90268 5.19977 5.73154 5.19977 6.50201C5.19977 7.27195 5.68982 8.10086 6.76618 8.10086H9.30441V7.43698H7.53616V6.29332H10.4481V9.25186H6.76623C4.99207 9.25186 4.06354 7.86858 4.06354 6.50201C4.06354 5.78559 4.30317 5.11678 4.73823 4.6174C5.04318 4.26826 5.42718 4.02029 5.87157 3.88232C6.14752 3.79587 6.44707 3.7522 6.76623 3.7522H10.4481V5.64368H9.30441Z" fill="url(#paint3_linear_1009_1199)"/>
<path d="M10.448 5.64372V3.75195H6.76623C5.93362 3.75195 5.23242 4.05131 4.73838 4.61762C4.30314 5.11663 4.06342 5.78583 4.06342 6.502C4.06342 7.86857 4.99184 9.25205 6.76623 9.25205H10.4479L10.448 6.29316H7.53589V6.47699H10.2641L10.2641 9.06827H6.76618C5.11243 9.06827 4.24714 7.7773 4.24714 6.502C4.24714 5.83025 4.47076 5.20393 4.87679 4.73845C5.33491 4.21335 5.98824 3.93578 6.76614 3.93578H10.2641V5.64377L10.448 5.64372Z" fill="url(#paint4_linear_1009_1199)"/>
<path opacity="0.7" d="M10.448 5.64372V3.75195H6.76623C5.93362 3.75195 5.23242 4.05131 4.73838 4.61762C4.30314 5.11663 4.06342 5.78583 4.06342 6.502C4.06342 7.86857 4.99184 9.25205 6.76623 9.25205H10.4479L10.448 6.29316H7.53589V6.47699H10.2641L10.2641 9.06827H6.76618C5.11243 9.06827 4.24714 7.7773 4.24714 6.502C4.24714 5.83025 4.47076 5.20393 4.87679 4.73845C5.33491 4.21335 5.98824 3.93578 6.76614 3.93578H10.2641V5.64377L10.448 5.64372Z" fill="url(#paint5_linear_1009_1199)"/>
</g>
</g>
<defs>
<linearGradient id="paint0_linear_1009_1199" x1="5.48969" y1="1.46442" x2="5.48969" y2="11.5395" gradientUnits="userSpaceOnUse">
<stop stop-color="#53B2FE"/>
<stop offset="1" stop-color="#4263EB"/>
</linearGradient>
<linearGradient id="paint1_linear_1009_1199" x1="5.48969" y1="1.46442" x2="5.48969" y2="11.5395" gradientUnits="userSpaceOnUse">
<stop stop-color="#53B2FE"/>
<stop offset="1" stop-color="#4263EB"/>
</linearGradient>
<linearGradient id="paint2_linear_1009_1199" x1="6.11028" y1="2.71984" x2="6.11028" y2="10.2696" gradientUnits="userSpaceOnUse">
<stop stop-color="#53B2FE"/>
<stop offset="1" stop-color="#4263EB"/>
</linearGradient>
<linearGradient id="paint3_linear_1009_1199" x1="7.2558" y1="3.7522" x2="7.2558" y2="9.25186" gradientUnits="userSpaceOnUse">
<stop stop-color="#53B2FE"/>
<stop offset="1" stop-color="#4263EB"/>
</linearGradient>
<linearGradient id="paint4_linear_1009_1199" x1="7.25572" y1="3.75195" x2="7.25572" y2="9.25205" gradientUnits="userSpaceOnUse">
<stop stop-color="#53B2FE"/>
<stop offset="1" stop-color="#4263EB"/>
</linearGradient>
<linearGradient id="paint5_linear_1009_1199" x1="7.25572" y1="3.75195" x2="7.25572" y2="9.25205" gradientUnits="userSpaceOnUse">
<stop stop-color="#53B2FE"/>
<stop offset="1" stop-color="#4263EB"/>
</linearGradient>
<clipPath id="clip0_1009_1199">
<rect width="13" height="13" rx="2" fill="white"/>
</clipPath>
<clipPath id="clip1_1009_1199">
<rect width="40.1684" height="12" fill="white" transform="translate(1.6001 1.4)"/>
</clipPath>
</defs>
</svg>

